<mxfile host="app.diagrams.net" modified="2022-04-13T08:44:51.867Z" agent="5.0 (Windows NT 10.0; Win64; x64) AppleWebKit/537.36 (KHTML, like Gecko) Chrome/100.0.4896.75 Safari/537.36" etag="Gx9ioir7AC7JaGfknZ3p" version="17.4.3" type="github">
  <diagram id="QyaBcpUD-Ix96tjRhaoq" name="Page-1">
    <mxGraphModel dx="1422" dy="754" grid="1" gridSize="10" guides="1" tooltips="1" connect="1" arrows="1" fold="1" page="1" pageScale="1" pageWidth="827" pageHeight="1169" math="0" shadow="0">
      <root>
        <mxCell id="0" />
        <mxCell id="1" parent="0" />
        <mxCell id="rw0Y99NMdiWX31zvS63o-2" value="&lt;div style=&quot;background-color: rgb(255 , 255 , 255) ; font-family: &amp;#34;consolas&amp;#34; , &amp;#34;courier new&amp;#34; , monospace ; font-size: 14px ; line-height: 19px&quot;&gt;&lt;div&gt;&lt;span style=&quot;color: #0000ff&quot;&gt;int&lt;/span&gt; &lt;span style=&quot;color: #795e26&quot;&gt;foo&lt;/span&gt;(&lt;span style=&quot;color: #0000ff&quot;&gt;int&lt;/span&gt; &lt;span style=&quot;color: #001080&quot;&gt;x&lt;/span&gt;, &lt;span style=&quot;color: #267f99&quot;&gt;std&lt;/span&gt;::&lt;span style=&quot;color: #267f99&quot;&gt;promise&lt;/span&gt;&amp;lt;&lt;span style=&quot;color: #0000ff&quot;&gt;int&lt;/span&gt;&amp;gt;&lt;span style=&quot;color: #0000ff&quot;&gt;&amp;amp;&lt;/span&gt; &lt;span style=&quot;color: #001080&quot;&gt;p&lt;/span&gt;) {&lt;/div&gt;&lt;div&gt;&amp;nbsp; &amp;nbsp; &lt;span style=&quot;color: #001080&quot;&gt;p&lt;/span&gt;.&lt;span style=&quot;color: #795e26&quot;&gt;set_value&lt;/span&gt;(&lt;span style=&quot;color: #098658&quot;&gt;1&lt;/span&gt;);&lt;/div&gt;&lt;div&gt;&amp;nbsp; &amp;nbsp; &lt;span style=&quot;color: #af00db&quot;&gt;return&lt;/span&gt; x + &lt;span style=&quot;color: #098658&quot;&gt;123&lt;/span&gt;;&lt;/div&gt;&lt;div&gt;}&lt;/div&gt;&lt;/div&gt;" style="rounded=0;whiteSpace=wrap;html=1;align=left;" vertex="1" parent="1">
          <mxGeometry x="80" y="160" width="320" height="80" as="geometry" />
        </mxCell>
        <mxCell id="rw0Y99NMdiWX31zvS63o-4" value="" style="rounded=0;whiteSpace=wrap;html=1;fillColor=none;strokeColor=#EA6B66;strokeWidth=2;" vertex="1" parent="1">
          <mxGeometry x="100" y="180" width="140" height="20" as="geometry" />
        </mxCell>
        <mxCell id="rw0Y99NMdiWX31zvS63o-3" value="&lt;div style=&quot;background-color: rgb(255 , 255 , 255) ; font-family: &amp;#34;consolas&amp;#34; , &amp;#34;courier new&amp;#34; , monospace ; font-size: 14px ; line-height: 19px&quot;&gt;&lt;div&gt;&lt;span style=&quot;color: #0000ff&quot;&gt;int&lt;/span&gt; &lt;span style=&quot;color: #795e26&quot;&gt;main&lt;/span&gt;() {&lt;/div&gt;&lt;div&gt;&amp;nbsp; &amp;nbsp; &lt;span style=&quot;color: #267f99&quot;&gt;std&lt;/span&gt;::promise&amp;lt;&lt;span style=&quot;color: #0000ff&quot;&gt;int&lt;/span&gt;&amp;gt; prom;&lt;/div&gt;&lt;div&gt;&amp;nbsp; &amp;nbsp; &lt;span style=&quot;color: #267f99&quot;&gt;std&lt;/span&gt;::future&amp;lt;&lt;span style=&quot;color: #0000ff&quot;&gt;int&lt;/span&gt;&amp;gt; fut = &lt;span style=&quot;color: #001080&quot;&gt;prom&lt;/span&gt;.&lt;span style=&quot;color: #795e26&quot;&gt;get_future&lt;/span&gt;();&lt;/div&gt;&lt;br&gt;&lt;div&gt;&amp;nbsp; &amp;nbsp; &lt;span style=&quot;color: #0000ff&quot;&gt;auto&lt;/span&gt; f = &lt;span style=&quot;color: #267f99&quot;&gt;std&lt;/span&gt;::&lt;span style=&quot;color: #795e26&quot;&gt;async&lt;/span&gt;(foo, &lt;span style=&quot;color: #098658&quot;&gt;10&lt;/span&gt;, &lt;span style=&quot;color: #267f99&quot;&gt;std&lt;/span&gt;::&lt;span style=&quot;color: #795e26&quot;&gt;ref&lt;/span&gt;(prom));&lt;/div&gt;&lt;div&gt;&amp;nbsp; &amp;nbsp; &lt;/div&gt;&lt;div&gt;&amp;nbsp; &amp;nbsp; &lt;span style=&quot;color: #267f99&quot;&gt;std&lt;/span&gt;::cout &amp;lt;&amp;lt; &lt;span style=&quot;color: #001080&quot;&gt;fut&lt;/span&gt;.&lt;span style=&quot;color: #795e26&quot;&gt;get&lt;/span&gt;() &amp;lt;&amp;lt; &lt;span style=&quot;color: #267f99&quot;&gt;std&lt;/span&gt;::endl;&lt;/div&gt;&lt;div&gt;&amp;nbsp; &amp;nbsp; &lt;span style=&quot;color: #267f99&quot;&gt;std&lt;/span&gt;::cout &amp;lt;&amp;lt; &lt;span style=&quot;color: #001080&quot;&gt;f&lt;/span&gt;.&lt;span style=&quot;color: #795e26&quot;&gt;get&lt;/span&gt;() &amp;lt;&amp;lt; &lt;span style=&quot;color: #267f99&quot;&gt;std&lt;/span&gt;::endl;&lt;/div&gt;&lt;div&gt;&amp;nbsp; &amp;nbsp; &lt;span style=&quot;color: #af00db&quot;&gt;return&lt;/span&gt; &lt;span style=&quot;color: #098658&quot;&gt;0&lt;/span&gt;;&lt;/div&gt;&lt;div&gt;}&lt;/div&gt;&lt;/div&gt;" style="rounded=0;whiteSpace=wrap;html=1;align=left;" vertex="1" parent="1">
          <mxGeometry x="560" y="80" width="400" height="240" as="geometry" />
        </mxCell>
        <mxCell id="rw0Y99NMdiWX31zvS63o-5" value="" style="rounded=0;whiteSpace=wrap;html=1;fillColor=none;strokeColor=#3333FF;strokeWidth=2;" vertex="1" parent="1">
          <mxGeometry x="100" y="200" width="140" height="20" as="geometry" />
        </mxCell>
        <mxCell id="rw0Y99NMdiWX31zvS63o-6" value="" style="rounded=0;whiteSpace=wrap;html=1;fillColor=none;strokeColor=#EA6B66;strokeWidth=2;" vertex="1" parent="1">
          <mxGeometry x="590" y="220" width="280" height="20" as="geometry" />
        </mxCell>
        <mxCell id="rw0Y99NMdiWX31zvS63o-7" value="" style="rounded=0;whiteSpace=wrap;html=1;fillColor=none;strokeColor=#3333FF;strokeWidth=2;" vertex="1" parent="1">
          <mxGeometry x="590" y="240" width="280" height="20" as="geometry" />
        </mxCell>
      </root>
    </mxGraphModel>
  </diagram>
</mxfile>
